<?xml version="1.0" standalone="no"?>
<!DOCTYPE svg PUBLIC "-//W3C//DTD SVG 20010904//EN"
 "http://www.w3.org/TR/2001/REC-SVG-20010904/DTD/svg10.dtd">
<svg version="1.0" xmlns="http://www.w3.org/2000/svg"
 width="512.000000pt" height="512.000000pt" viewBox="0 0 512.000000 512.000000"
 preserveAspectRatio="xMidYMid meet">
<metadata>
Created by potrace 1.11, written by Peter Selinger 2001-2013
</metadata>
<g transform="translate(0.000000,512.000000) scale(0.100000,-0.100000)"
fill="#000000" stroke="none">
<path d="M2385 5103 c-86 -18 -216 -77 -298 -137 -188 -135 -375 -386 -506
-677 -16 -37 -35 -69 -42 -71 -6 -2 -37 -1 -68 3 -31 4 -120 7 -197 7 l-142 0
-36 40 c-95 105 -258 109 -364 8 -35 -32 -68 -93 -74 -136 -2 -19 -17 -32 -58
-54 -208 -108 -344 -286 -389 -511 -9 -48 -8 -257 3 -303 49 -214 129 -393
275 -612 68 -102 70 -105 52 -125 -30 -33 -127 -189 -176 -281 -106 -200 -155
-362 -160 -539 -8 -262 77 -449 276 -608 25 -20 49 -37 52 -37 3 0 28 -13 54
-28 100 -59 251 -106 425 -133 87 -14 391 -20 465 -10 29 4 58 4 66 0 7 -5 27
-39 42 -76 139 -326 386 -623 615 -738 121 -61 200 -80 335 -79 109 0 129 3
215 33 102 35 151 60 225 117 46 35 48 35 96 24 200 -48 373 157 290 344 l-20
45 48 85 c26 46 64 122 85 169 l38 85 36 -6 c50 -9 406 -8 462 1 25 4 63 10
85 13 82 13 134 26 234 61 253 87 420 247 498 477 26 75 28 93 27 231 0 132
-3 162 -27 248 -30 105 -62 187 -110 282 -50 97 -66 125 -136 230 -36 55 -67
103 -69 107 -2 4 30 58 71 120 126 191 196 339 244 518 31 116 40 312 20 401
-13 55 -13 56 15 89 41 50 62 121 54 187 -11 92 -57 158 -140 200 -65 33 -156
35 -217 5 l-41 -21 -39 25 c-49 31 -168 78 -250 99 -168 44 -256 53 -491 51
l-227 -3 -45 96 c-156 332 -348 567 -566 695 -161 94 -340 125 -515 89z m230
-162 c208 -40 400 -198 572 -472 43 -69 146 -269 141 -274 -2 -2 -41 -10 -88
-20 -197 -38 -475 -117 -643 -181 l-68 -26 -97 36 c-53 19 -155 53 -227 75
-113 34 -163 47 -250 66 -11 2 -54 11 -95 20 -41 9 -86 18 -100 20 -33 4 -30
17 34 140 116 221 226 365 364 476 148 119 310 168 457 140z m-1171 -889 c31
-2 37 -5 33 -19 -3 -10 -17 -56 -32 -103 -42 -136 -93 -350 -120 -503 -15 -84
-31 -146 -39 -152 -168 -125 -457 -390 -561 -514 -27 -33 -52 -60 -55 -60 -12
-1 -130 193 -177 289 -91 188 -129 347 -118 495 14 188 115 345 287 442 l36
21 24 -25 c12 -14 43 -37 68 -51 38 -22 57 -27 120 -27 64 1 82 5 122 29 57
34 101 87 118 142 l12 41 122 -2 c66 0 138 -2 160 -3z m2566 -6 c14 -2 43 -7
65 -11 73 -10 185 -45 264 -81 l77 -35 -4 -63 c-9 -135 94 -259 221 -268 22
-1 39 -8 43 -18 12 -27 13 -213 3 -270 -29 -154 -109 -338 -223 -514 l-57 -88
-136 141 c-130 136 -355 338 -455 410 -27 19 -48 37 -48 40 0 7 -36 212 -44
251 -6 33 -55 237 -65 275 -16 57 -59 200 -66 217 -5 12 0 18 17 21 31 5 376
0 408 -7z m-2220 -40 c19 -3 85 -17 145 -31 94 -22 151 -38 335 -94 21 -6 0
-20 -150 -94 -181 -89 -394 -210 -534 -302 -44 -30 -82 -53 -83 -52 -1 2 3 23
8 47 6 25 13 56 15 70 10 54 77 299 101 370 38 112 35 109 85 100 24 -5 59
-11 78 -14z m1650 -103 c36 -110 97 -345 114 -440 l5 -32 -80 52 c-44 29 -88
57 -97 62 -243 142 -436 246 -552 296 l-65 28 30 11 c85 33 326 95 535 139 71
14 66 19 110 -116z m-749 -187 c258 -116 510 -253 729 -399 175 -116 178 -119
185 -185 4 -31 8 -67 10 -79 19 -126 27 -678 12 -843 -5 -47 -10 -105 -11
-130 -2 -25 -7 -70 -11 -101 l-7 -56 -166 -110 c-201 -133 -308 -196 -512
-299 -226 -115 -376 -177 -408 -169 -55 14 -338 148 -517 245 -154 83 -498
302 -522 332 -10 12 -18 62 -29 178 -2 25 -6 74 -10 110 -9 100 -11 523 -2
640 20 275 27 331 41 348 17 22 314 214 439 286 219 124 575 295 619 296 9 0
81 -29 160 -64z m-1427 -788 c-10 -141 -10 -608 0 -748 9 -120 20 -117 -94
-21 -79 67 -300 288 -354 354 l-38 47 48 58 c89 107 418 422 440 422 4 0 3
-51 -2 -112z m2612 47 c126 -107 404 -394 404 -416 0 -33 -453 -479 -486 -479
-3 0 -2 44 2 98 11 121 11 634 1 765 -9 113 -13 111 79 32z m-2716 -1029 c74
-60 138 -118 141 -130 4 -11 12 -52 19 -91 39 -228 71 -360 157 -636 3 -12 -4
-18 -29 -22 -40 -6 -383 -1 -395 6 -4 3 -30 8 -58 11 -125 17 -282 74 -375
137 -175 118 -254 274 -245 487 4 98 7 118 36 217 35 119 106 267 196 406 l56
87 181 -182 c99 -100 242 -230 316 -290z m3306 367 c103 -165 176 -331 210
-478 13 -61 13 -239 -2 -295 -69 -269 -314 -429 -719 -470 -88 -9 -362 -6
-372 4 -4 3 5 41 20 84 24 70 82 280 93 335 2 12 15 78 28 147 14 69 27 141
31 160 4 29 18 44 72 85 36 28 71 55 77 60 6 6 56 49 111 96 99 85 314 298
355 352 12 15 23 27 25 27 2 0 34 -48 71 -107z m-2871 -684 c149 -99 490 -287
615 -339 86 -36 88 -41 28 -61 -60 -20 -260 -76 -298 -83 -14 -2 -55 -12 -92
-20 -36 -9 -93 -20 -126 -24 l-60 -8 -35 110 c-36 109 -64 205 -72 242 -2 11
-13 60 -24 109 -12 50 -23 101 -26 113 -7 27 -12 29 90 -39z m1940 -71 c-29
-133 -83 -326 -116 -412 -23 -62 -8 -59 -154 -30 -159 31 -448 108 -488 131
-5 3 29 22 75 42 159 71 440 227 613 339 50 33 91 58 93 56 2 -1 -8 -58 -23
-126z m-889 -448 c160 -57 396 -123 549 -155 71 -15 132 -29 134 -31 3 -2 -24
-59 -59 -127 l-63 -122 -81 0 c-71 0 -86 -4 -123 -27 -57 -37 -82 -65 -105
-117 -26 -57 -31 -119 -14 -176 l14 -45 -41 -29 c-46 -31 -147 -84 -147 -77 0
3 -15 -1 -33 -9 -17 -7 -68 -16 -112 -20 -139 -12 -269 34 -406 144 -148 119
-269 280 -384 513 -53 108 -64 95 105 127 143 28 357 88 515 145 66 24 124 44
128 45 5 0 60 -17 123 -39z"/>
<path d="M2405 3059 c-451 -109 -623 -646 -315 -985 192 -211 507 -256 753
-107 130 79 241 235 271 383 13 62 14 198 2 249 -46 200 -195 369 -389 438
-56 20 -95 27 -177 29 -58 2 -123 -1 -145 -7z"/>
</g>
</svg>
